<svg id="Layer_1" data-name="Layer 1" xmlns="http://www.w3.org/2000/svg" viewBox="150 150 522 522">>
    <defs>
        <style>
            .cls-1 {
                fill: #000;
            }
        </style>
    </defs>
    <title>belbouk</title>
    <g id="belbouk">
        <rect class="cls-1" x="637.38" y="396.85" width="28.35" height="28.35"
            transform="translate(-99.8 581.1) rotate(-45)" />
        <rect class="cls-1" x="497.07" y="537.16" width="28.35" height="28.35"
            transform="translate(-240.11 522.98) rotate(-45)" />
        <polygon class="cls-1"
            points="631.51 451.12 611.46 471.16 591.42 491.2 571.38 511.25 551.33 491.2 531.29 471.16 511.24 491.2 491.2 511.25 471.16 531.29 451.11 551.34 471.16 571.38 491.2 591.42 471.16 611.47 451.11 631.51 431.07 651.56 411.02 671.6 390.98 651.56 370.94 631.51 350.89 611.47 330.85 591.42 310.81 571.38 290.76 551.34 310.81 531.29 330.85 551.34 350.89 571.38 370.94 591.42 390.98 611.47 411.02 631.51 431.07 611.47 451.11 591.42 431.07 571.38 411.02 591.42 390.98 571.38 370.94 551.34 390.98 531.29 411.02 511.25 431.07 531.29 451.11 511.25 471.16 491.2 491.2 471.16 511.24 451.12 491.2 431.07 471.16 411.03 451.11 390.98 471.16 370.94 491.2 390.98 511.24 411.03 531.29 431.07 551.33 451.12 571.38 471.16 591.42 451.12 571.38 431.07 551.33 411.03 571.38 390.98 591.42 370.94 611.46 350.9 631.51 370.94 611.46 390.98 591.42 411.03 631.51 451.12" />
        <polygon class="cls-1"
            points="551.33 370.94 531.29 390.98 511.24 370.94 491.2 350.9 471.16 330.85 451.11 350.9 431.07 370.94 411.02 390.98 390.98 411.03 411.02 431.07 431.07 411.03 451.11 431.07 471.16 451.12 451.11 471.16 431.07 491.2 411.02 471.16 390.98 451.12 370.94 431.07 350.89 411.03 370.94 390.98 390.98 370.94 411.02 350.9 431.07 330.85 451.11 310.81 471.16 290.76 491.2 310.81 551.33 370.94" />
        <polygon class="cls-1"
            points="310.98 450.94 331.02 470.98 310.98 491.03 290.94 511.07 270.89 491.03 290.94 470.98 270.89 450.94 290.94 430.9 310.98 410.85 331.02 430.9 310.98 450.94" />
        <polygon class="cls-1"
            points="270.72 491.2 250.67 511.25 230.63 491.2 210.59 471.16 190.54 451.12 170.5 431.07 150.45 411.03 170.5 390.98 190.54 411.03 210.59 431.07 230.63 451.12 250.67 471.16 270.72 491.2" />
        <polygon class="cls-1"
            points="411.02 310.81 390.98 330.85 370.94 310.81 350.89 290.76 330.85 270.72 290.76 310.81 310.81 330.85 330.85 310.81 350.89 330.85 370.94 350.9 350.89 370.94 330.85 390.98 310.81 370.94 290.76 390.98 270.72 411.03 250.67 431.07 230.63 411.03 250.67 390.98 270.72 370.94 290.76 350.9 270.72 330.85 250.67 310.81 270.72 290.76 290.76 270.72 310.81 250.68 330.85 230.63 350.89 250.68 370.94 270.72 390.98 290.76 411.02 310.81" />
        <rect class="cls-1" x="396.85" y="156.32" width="28.35" height="28.35"
            transform="translate(-0.17 340.57) rotate(-45)" />
        <polygon class="cls-1"
            points="591.42 330.85 571.38 350.9 551.33 330.85 531.29 310.81 511.24 290.76 491.2 270.72 451.11 230.63 431.07 250.68 411.02 270.72 390.98 250.68 370.94 230.63 350.89 210.59 370.94 190.54 390.98 210.59 411.02 230.63 431.07 210.59 451.11 190.54 471.16 210.59 491.2 230.63 511.24 250.68 531.29 270.72 551.33 290.76 571.38 310.81 591.42 330.85" />
        <polygon class="cls-1"
            points="250.67 350.9 230.63 370.94 210.59 390.98 190.54 370.94 210.59 350.9 230.63 330.85 250.67 350.9" />
        <polygon class="cls-1"
            points="390.98 491.2 370.94 511.25 350.89 531.29 330.85 511.25 350.89 491.2 370.94 471.16 390.98 491.2" />
    </g>
</svg>