<?xml version="1.0" encoding="utf-8"?>
<svg version="1.2" baseProfile="tiny" id="belbouk_1_"
	 xmlns="http://www.w3.org/2000/svg" xmlns:xlink="http://www.w3.org/1999/xlink" x="0px" y="0px" viewBox="0 0 200 200"
	 overflow="visible" xml:space="preserve">
<g id="belbouk">
	<rect x="184.11" y="184.1" fill="#fff" width="15.29" height="15.29"/>
	<rect x="77.06" y="184.1" fill="#fff" width="15.29" height="15.29"/>
	<polygon fill="#fff" points="199.39,153.52 184.1,153.52 168.81,153.52 153.52,153.52 153.52,168.81 153.52,184.11 
		138.23,184.11 138.22,168.81 138.23,153.52 138.22,138.23 138.23,122.94 138.23,107.65 122.94,107.64 122.94,122.94 122.94,138.23 
		122.93,153.52 107.64,153.52 92.35,153.52 77.06,153.52 61.77,153.52 61.77,138.23 46.48,138.23 31.18,138.23 31.18,153.52 
		31.18,168.81 46.48,168.81 46.48,184.1 31.18,184.11 15.89,184.1 15.89,168.81 15.9,153.52 15.89,138.23 15.89,122.94 15.9,107.65 
		0.6,107.65 0.6,122.94 0.6,138.23 0.6,153.52 0.6,168.81 0.6,184.11 0.6,199.4 15.89,199.4 31.18,199.4 46.48,199.4 61.77,199.4 
		61.77,184.11 61.77,168.81 77.06,168.81 92.35,168.81 107.64,168.81 122.94,168.81 122.94,184.1 122.94,199.4 138.23,199.4 
		153.52,199.4 168.81,199.4 168.81,168.81 184.1,168.81 199.4,168.81 	"/>
	<polygon fill="#fff" points="122.93,77.06 107.64,77.06 92.35,77.06 77.06,77.06 77.06,92.36 77.06,107.65 77.06,122.94 
		77.06,138.23 92.35,138.23 107.64,138.23 107.64,122.94 107.64,107.65 92.35,107.64 92.35,92.36 107.64,92.35 122.94,92.36 
		138.22,92.36 153.52,92.36 153.52,107.65 153.52,122.94 153.52,138.23 168.81,138.23 168.81,92.36 168.81,77.06 153.52,77.06 
		138.23,77.06 	"/>
	<polygon fill="#fff" points="31.32,92.36 46.61,92.35 46.61,77.06 61.9,77.06 61.9,61.77 46.61,61.77 31.32,61.77 31.32,77.06 
		16.03,77.06 16.03,92.36 	"/>
	<polygon fill="#fff" points="0.6,77.06 15.9,77.06 15.89,61.77 15.89,46.48 15.9,31.19 15.89,15.9 15.9,0.6 0.6,0.6 0.6,15.9 
		0.6,31.19 0.6,46.48 0.6,61.77 	"/>
	<polygon fill="#fff" points="61.77,46.48 77.06,46.48 77.06,61.77 92.35,61.77 107.64,61.77 107.64,46.48 107.64,31.19 
		92.35,31.19 92.35,15.9 122.94,15.9 122.94,31.19 122.94,46.48 122.94,61.77 138.22,61.77 138.23,46.48 138.23,31.19 138.22,15.9 
		138.23,0.6 122.94,0.61 107.64,0.6 92.35,0.6 77.06,0.6 77.06,15.9 77.06,31.19 61.77,31.19 46.48,31.19 31.18,31.19 31.18,46.48 
		46.48,46.48 	"/>
	<rect x="184.11" y="0.6" fill="#fff" width="15.29" height="15.29"/>
	<polygon fill="#fff" points="184.1,46.48 184.1,77.06 184.1,92.35 184.1,107.65 184.1,122.94 184.1,138.23 199.4,138.23 
		199.4,122.94 199.4,107.64 199.4,92.36 199.39,77.06 199.4,61.77 199.4,46.48 199.4,31.19 184.1,31.19 168.81,31.19 168.81,15.9 
		168.81,0.6 153.52,0.6 153.52,15.9 153.52,31.19 153.52,46.48 168.81,46.48 	"/>
	<polygon fill="#fff" points="46.48,15.9 61.77,15.9 61.77,0.6 46.48,0.61 31.18,0.6 31.19,15.9 	"/>
	<polygon fill="#fff" points="31.18,107.65 31.18,122.94 46.48,122.94 61.77,122.94 61.77,107.65 46.48,107.64 	"/>
</g>
</svg>
